<?xml version="1.0" standalone="no"?>
<!DOCTYPE svg PUBLIC "-//W3C//DTD SVG 20010904//EN"
 "http://www.w3.org/TR/2001/REC-SVG-20010904/DTD/svg10.dtd">
<svg version="1.0" xmlns="http://www.w3.org/2000/svg"
 width="602.000000pt" height="601.000000pt" viewBox="0 0 602.000000 601.000000"
 preserveAspectRatio="xMidYMid meet">

<g transform="translate(0.000000,601.000000) scale(0.100000,-0.100000)"
fill="#000000" stroke="none">
<path d="M1245 5999 c-163 -22 -391 -94 -432 -135 -33 -33 -32 -96 3 -130 32
-33 70 -29 209 20 516 182 1102 -16 1408 -475 138 -209 202 -422 201 -679 -1
-325 -114 -606 -339 -838 -234 -244 -536 -372 -876 -372 -323 0 -605 112 -836
332 -253 242 -378 534 -378 883 0 260 66 478 206 680 86 124 89 129 89 158 0
43 -49 87 -96 87 -45 0 -82 -36 -162 -158 -102 -156 -174 -339 -209 -529 -22
-121 -22 -359 1 -483 51 -285 184 -539 391 -746 214 -215 479 -352 770 -397
l80 -13 0 -194 0 -195 -60 -7 c-132 -17 -355 -87 -399 -126 -46 -42 -39 -120
14 -147 40 -20 57 -19 129 11 171 69 385 101 566 84 551 -53 987 -451 1091
-998 19 -101 22 -304 5 -403 -62 -372 -286 -693 -612 -877 -284 -161 -660
-196 -971 -92 -434 146 -750 515 -824 965 -21 129 -14 344 15 460 44 180 117
336 220 470 36 47 46 67 46 98 0 81 -101 118 -160 60 -35 -35 -138 -189 -175
-263 -46 -92 -98 -240 -121 -350 -30 -138 -33 -408 -6 -543 58 -287 186 -527
391 -733 205 -205 446 -333 733 -391 135 -27 405 -24 543 6 264 57 491 177
686 363 196 188 321 401 389 661 13 51 26 109 30 130 l6 37 199 0 c110 0 200
-2 200 -4 0 -32 39 -190 66 -269 74 -213 189 -392 355 -552 193 -186 424 -309
689 -366 138 -30 408 -33 543 -6 186 37 370 114 536 224 105 70 286 249 359
355 107 157 191 356 229 545 27 134 24 404 -6 543 -23 110 -75 257 -121 351
-36 71 -140 226 -176 262 -59 60 -159 22 -159 -61 0 -29 11 -51 46 -97 297
-389 330 -922 84 -1345 -183 -314 -506 -535 -860 -591 -101 -15 -276 -15 -380
1 -439 67 -818 386 -959 810 -235 702 188 1432 915 1580 114 23 310 28 420 11
80 -13 215 -51 282 -80 58 -25 78 -26 117 -6 53 27 60 105 14 147 -38 33 -292
118 -355 118 -18 0 -19 11 -19 208 l0 208 63 13 c92 18 255 75 338 117 268
135 512 382 639 650 99 206 135 371 134 614 0 190 -16 290 -70 447 -53 157
-186 389 -255 447 -63 54 -154 18 -154 -61 0 -32 10 -52 53 -109 236 -314 303
-734 177 -1112 -142 -423 -503 -734 -945 -813 -106 -19 -325 -17 -433 4 -412
81 -756 369 -907 759 -69 179 -96 422 -67 613 53 340 244 642 525 829 111 74
189 112 310 150 251 79 515 75 757 -10 138 -49 177 -53 209 -21 53 53 41 115
-29 154 -53 30 -206 79 -313 100 -123 24 -395 24 -517 0 -278 -56 -509 -176
-708 -367 -172 -164 -285 -340 -361 -557 -27 -79 -66 -237 -66 -269 0 -2 -90
-4 -200 -4 l-199 0 -7 38 c-51 300 -181 551 -398 768 -206 205 -431 325 -720
385 -117 24 -334 33 -441 18z m1959 -1501 c21 -328 168 -648 407 -887 247
-247 568 -390 919 -410 l115 -6 0 -185 0 -185 -120 -7 c-318 -18 -608 -136
-849 -346 -273 -238 -449 -592 -472 -949 l-7 -103 -187 0 -187 0 -7 102 c-27
424 -260 823 -623 1066 -186 125 -434 212 -655 229 l-78 6 0 188 0 189 38 0
c63 0 223 28 317 55 105 30 286 115 376 176 365 245 598 643 625 1067 l7 102
187 0 187 0 7 -102z"/>
<path d="M1290 5439 c-302 -46 -571 -271 -671 -561 -115 -336 -7 -710 271
-931 133 -107 301 -172 474 -184 84 -6 85 -6 115 25 33 33 39 64 19 107 -16
36 -57 55 -116 55 -71 0 -192 34 -275 77 -106 54 -221 173 -276 284 -192 389
30 846 452 933 151 31 286 14 426 -55 111 -55 230 -170 284 -276 43 -82 77
-204 77 -274 0 -60 16 -97 51 -115 44 -22 77 -17 111 17 31 30 31 31 25 115
-26 366 -282 676 -631 764 -95 24 -247 33 -336 19z"/>
<path d="M4805 5301 c-71 -30 -80 -133 -14 -166 15 -8 53 -15 84 -15 l55 0 0
-80 c0 -44 -3 -80 -6 -80 -4 0 -117 -22 -251 -50 -134 -27 -246 -50 -249 -50
-14 0 -1 85 16 107 30 38 26 88 -9 124 -27 27 -35 29 -101 29 -42 0 -82 -6
-99 -15 -53 -27 -63 -102 -20 -141 15 -14 19 -31 19 -86 0 -62 -4 -77 -36
-134 -25 -46 -41 -64 -51 -60 -37 14 -124 17 -178 6 -112 -23 -203 -81 -266
-169 -136 -190 -89 -463 103 -591 79 -52 147 -73 238 -73 347 0 541 392 334
674 -45 61 -46 63 -31 93 l14 31 292 59 c160 32 294 57 297 54 3 -3 7 -21 10
-40 6 -33 3 -37 -46 -73 -61 -44 -123 -135 -145 -209 -21 -71 -19 -190 4 -259
101 -292 472 -381 692 -164 189 186 161 497 -58 648 -58 40 -115 60 -193 68
l-65 6 -11 50 c-7 28 -13 112 -13 188 l-1 137 55 0 c71 0 110 20 124 63 13 40
4 72 -29 102 -20 19 -38 20 -234 22 -116 1 -220 -2 -231 -6z m485 -783 c130
-78 149 -260 39 -365 -163 -155 -437 -3 -389 215 12 52 58 129 69 116 4 -5 17
-54 29 -109 17 -79 27 -105 48 -122 49 -44 135 -18 149 45 5 24 -20 164 -41
235 -9 28 35 21 96 -15z m-1274 -92 c-26 -45 -46 -95 -46 -110 0 -40 49 -86
92 -86 48 0 71 21 119 107 42 76 42 76 60 55 26 -33 40 -110 28 -161 -26 -118
-110 -185 -229 -185 -135 0 -230 95 -230 231 0 62 15 104 56 152 33 40 115 81
162 81 l33 0 -45 -84z"/>
<path d="M1353 4956 c-27 -24 -28 -27 -31 -140 l-4 -116 -108 0 c-99 0 -111
-2 -135 -22 -15 -14 -28 -38 -31 -59 -5 -31 -1 -42 24 -70 l30 -34 177 0 177
0 29 33 29 32 0 171 0 171 -29 29 c-38 37 -88 39 -128 5z"/>
<path d="M1295 2425 c-86 -19 -140 -42 -217 -92 -169 -111 -268 -296 -268
-503 0 -169 59 -310 179 -430 189 -188 459 -232 701 -114 57 28 95 57 155 118
125 126 176 250 176 426 0 174 -55 305 -180 430 -147 146 -351 208 -546 165z
m247 -195 c151 -46 259 -171 289 -334 33 -177 -65 -363 -234 -446 -129 -63
-293 -51 -417 32 -168 112 -230 338 -145 525 26 59 101 144 157 179 100 63
234 80 350 44z"/>
<path d="M1327 2096 c-122 -45 -187 -140 -187 -273 0 -111 51 -192 152 -242
176 -88 377 22 404 220 14 102 -48 218 -144 272 -64 36 -164 46 -225 23z m154
-205 c37 -37 38 -79 3 -120 -21 -25 -34 -31 -64 -31 -58 0 -95 35 -95 90 0 84
95 121 156 61z"/>
<path d="M4433 2385 c-211 -38 -380 -128 -533 -285 -173 -176 -265 -389 -277
-640 -19 -399 198 -758 562 -931 173 -82 355 -112 535 -89 589 76 977 636 839
1210 -28 113 -102 266 -177 367 -216 285 -596 432 -949 368z m97 -277 c0 -154
44 -317 120 -439 16 -27 30 -53 30 -58 0 -5 -15 -20 -34 -35 l-35 -26 -223
256 c-123 141 -224 259 -226 264 -5 12 94 65 177 94 61 22 103 32 184 45 4 0
7 -45 7 -101z m288 72 c89 -25 188 -74 262 -129 30 -23 55 -43 55 -46 0 -5
-299 -265 -305 -265 -8 0 -60 107 -81 169 -37 106 -47 291 -15 291 6 0 44 -9
84 -20z m-563 -505 l217 -250 -38 -33 -38 -32 -25 24 c-109 102 -302 184 -494
211 -45 6 -47 7 -41 33 20 82 66 176 129 261 39 53 49 61 60 50 7 -8 111 -126
230 -264z m1053 107 c47 -90 80 -198 89 -296 l6 -69 -58 8 c-131 16 -275 73
-351 139 l-38 33 40 35 c133 120 259 228 265 228 4 0 25 -35 47 -78z m-432
-362 c36 -28 103 -69 147 -92 85 -42 244 -88 308 -88 21 0 40 -4 43 -8 16 -26
-84 -235 -147 -307 -31 -35 -37 -38 -50 -25 -31 32 -423 486 -430 497 -5 8 5
24 25 42 18 17 34 31 35 31 1 0 32 -23 69 -50z m-920 -30 c94 -24 205 -76 257
-122 l39 -33 -152 -134 c-119 -105 -154 -131 -162 -120 -60 86 -128 289 -128
381 0 48 0 48 33 48 19 0 69 -9 113 -20z m870 -371 l223 -254 -22 -19 c-50
-44 -194 -99 -299 -115 l-48 -8 0 82 c0 154 -48 331 -124 457 l-33 56 31 31
c17 17 35 30 40 28 5 -2 110 -118 232 -258z m-404 -9 c21 -41 44 -105 53 -142
16 -72 21 -238 6 -238 -5 0 -49 12 -97 26 -98 28 -194 76 -267 134 l-47 38
147 131 c82 71 153 129 158 128 6 -2 27 -36 47 -77z"/>
<path d="M625 1478 c-15 -13 -28 -38 -31 -58 -5 -31 1 -46 45 -112 69 -103
206 -231 312 -291 90 -50 233 -102 317 -113 l51 -6 3 -223 c3 -207 4 -225 23
-245 30 -33 62 -42 102 -29 58 19 63 41 63 281 l0 213 91 18 c209 40 407 159
539 324 106 131 122 183 71 234 -29 28 -68 37 -105 23 -9 -3 -40 -41 -70 -83
-272 -389 -809 -443 -1141 -116 -39 39 -88 96 -108 127 -21 32 -46 62 -57 68
-31 17 -77 11 -105 -12z"/>
</g>
</svg>
