<svg width="32" height="32" viewBox="0 0 32 32" fill="none" xmlns="http://www.w3.org/2000/svg">
<rect width="32" height="32" rx="9" fill="#50D4BF"/>
<path d="M5.812 21V11.2H9.788C10.5067 11.2 11.1833 11.3307 11.818 11.592C12.4527 11.844 12.9987 12.1893 13.456 12.628C13.9227 13.0667 14.2913 13.5893 14.562 14.196C14.8327 14.7933 14.968 15.4373 14.968 16.128C14.968 16.8 14.8327 17.4347 14.562 18.032C14.2913 18.6293 13.9227 19.1473 13.456 19.586C12.9987 20.0247 12.4527 20.37 11.818 20.622C11.1833 20.874 10.5067 21 9.788 21H5.812ZM9.732 13.328H8.22V18.872H9.732C10.1147 18.872 10.474 18.802 10.81 18.662C11.146 18.522 11.4353 18.3307 11.678 18.088C11.93 17.836 12.126 17.542 12.266 17.206C12.406 16.87 12.476 16.5107 12.476 16.128C12.476 15.736 12.406 15.372 12.266 15.036C12.126 14.6907 11.93 14.392 11.678 14.14C11.4353 13.888 11.146 13.692 10.81 13.552C10.474 13.4027 10.1147 13.328 9.732 13.328ZM18.9451 21L14.9831 11.2H17.5871L20.3731 18.494L23.2151 11.2H25.7211L21.7031 21H18.9451Z" fill="white"/>
</svg>
